<mxfile host="65bd71144e">
    <diagram id="XLTkZ4028X1ey39LT0xR" name="第 1 页">
        <mxGraphModel dx="662" dy="426" grid="1" gridSize="10" guides="1" tooltips="1" connect="1" arrows="1" fold="1" page="1" pageScale="1" pageWidth="827" pageHeight="1169" math="0" shadow="0">
            <root>
                <mxCell id="0"/>
                <mxCell id="1" parent="0"/>
                <mxCell id="2" value="" style="endArrow=classic;html=1;strokeWidth=4;" edge="1" parent="1">
                    <mxGeometry width="50" height="50" relative="1" as="geometry">
                        <mxPoint x="40" y="243" as="sourcePoint"/>
                        <mxPoint x="400" y="243" as="targetPoint"/>
                    </mxGeometry>
                </mxCell>
                <mxCell id="3" value="JS" style="rounded=0;whiteSpace=wrap;html=1;fillColor=#1ba1e2;fontColor=#ffffff;strokeColor=#006EAF;" vertex="1" parent="1">
                    <mxGeometry x="60" y="180" width="40" height="60" as="geometry"/>
                </mxCell>
                <mxCell id="4" value="JS" style="rounded=0;whiteSpace=wrap;html=1;fillColor=#1ba1e2;fontColor=#ffffff;strokeColor=#006EAF;" vertex="1" parent="1">
                    <mxGeometry x="120" y="180" width="40" height="60" as="geometry"/>
                </mxCell>
                <mxCell id="5" value="JS" style="rounded=0;whiteSpace=wrap;html=1;fillColor=#1ba1e2;fontColor=#ffffff;strokeColor=#006EAF;" vertex="1" parent="1">
                    <mxGeometry x="180" y="180" width="40" height="60" as="geometry"/>
                </mxCell>
                <mxCell id="6" value="JS" style="rounded=0;whiteSpace=wrap;html=1;fillColor=#1ba1e2;fontColor=#ffffff;strokeColor=#006EAF;" vertex="1" parent="1">
                    <mxGeometry x="320" y="180" width="40" height="60" as="geometry"/>
                </mxCell>
                <mxCell id="7" value="初始标记" style="rounded=0;whiteSpace=wrap;html=1;fillColor=#d80073;fontColor=#ffffff;strokeColor=#A50040;" vertex="1" parent="1">
                    <mxGeometry x="100" y="180" width="20" height="60" as="geometry"/>
                </mxCell>
                <mxCell id="8" value="增量标记" style="rounded=0;whiteSpace=wrap;html=1;fillColor=#d80073;fontColor=#ffffff;strokeColor=#A50040;" vertex="1" parent="1">
                    <mxGeometry x="160" y="180" width="20" height="60" as="geometry"/>
                </mxCell>
                <mxCell id="9" value="清理" style="rounded=0;whiteSpace=wrap;html=1;fillColor=#d80073;fontColor=#ffffff;strokeColor=#A50040;" vertex="1" parent="1">
                    <mxGeometry x="280" y="180" width="20" height="60" as="geometry"/>
                </mxCell>
                <mxCell id="10" value="整理" style="rounded=0;whiteSpace=wrap;html=1;fillColor=#d80073;fontColor=#ffffff;strokeColor=#A50040;" vertex="1" parent="1">
                    <mxGeometry x="300" y="180" width="20" height="60" as="geometry"/>
                </mxCell>
                <mxCell id="11" value="主线程" style="text;html=1;strokeColor=none;fillColor=none;align=center;verticalAlign=middle;whiteSpace=wrap;rounded=0;" vertex="1" parent="1">
                    <mxGeometry x="400" y="230" width="60" height="30" as="geometry"/>
                </mxCell>
                <mxCell id="12" value="..." style="text;html=1;strokeColor=none;fillColor=none;align=center;verticalAlign=middle;whiteSpace=wrap;rounded=0;fontSize=20;" vertex="1" parent="1">
                    <mxGeometry x="220" y="200" width="60" height="30" as="geometry"/>
                </mxCell>
            </root>
        </mxGraphModel>
    </diagram>
</mxfile>